HIERARCHY
ROOT Hips
{
	OFFSET 0.000000 0.000000 0.000000
	CHANNELS 6 Xposition Yposition Zposition Zrotation Yrotation Xrotation 
	JOINT LHipJoint
	{
		OFFSET 0.000000 0.000000 0.000000
		CHANNELS 3 Zrotation Yrotation Xrotation
		JOINT LeftUpLeg
		{
			OFFSET 1.363060 -1.794630 0.839290
			CHANNELS 3 Zrotation Yrotation Xrotation
			JOINT LeftLeg
			{
				OFFSET 2.448110 -6.726130 0.000000
				CHANNELS 3 Zrotation Yrotation Xrotation
				JOINT LeftFoot
				{
					OFFSET 2.562200 -7.039590 0.000000
					CHANNELS 3 Zrotation Yrotation Xrotation
					JOINT LeftToeBase
					{
						OFFSET 0.157640 -0.433110 2.322550
						CHANNELS 3 Zrotation Yrotation Xrotation
						End Site
						{
							OFFSET 0.000000 0.000000 0.000000
						}
					}
				}
			}
		}
	}
	JOINT RHipJoint
	{
		OFFSET 0.000000 0.000000 0.000000
		CHANNELS 3 Zrotation Yrotation Xrotation
		JOINT RightUpLeg
		{
			OFFSET -1.305520 -1.794630 0.839290
			CHANNELS 3 Zrotation Yrotation Xrotation
			JOINT RightLeg
			{
				OFFSET -2.542530 -6.985550 0.000000
				CHANNELS 3 Zrotation Yrotation Xrotation
				JOINT RightFoot
				{
					OFFSET -2.568260 -7.056230 0.000000
					CHANNELS 3 Zrotation Yrotation Xrotation
					JOINT RightToeBase
					{
						OFFSET -0.164730 -0.452590 2.363150
						CHANNELS 3 Zrotation Yrotation Xrotation
						End Site
						{
							OFFSET 0.000000 0.000000 0.000000
						}
					}
				}
			}
		}
	}
	JOINT LowerBack
	{
		OFFSET 0.000000 0.000000 0.000000
		CHANNELS 3 Zrotation Yrotation Xrotation
		JOINT Spine
		{
			OFFSET 0.028270 2.035590 -0.193380
			CHANNELS 3 Zrotation Yrotation Xrotation
			JOINT Spine1
			{
				OFFSET 0.056720 2.048850 -0.042750
				CHANNELS 3 Zrotation Yrotation Xrotation
				JOINT Neck
				{
					OFFSET 0.000000 0.000000 0.000000
					CHANNELS 3 Zrotation Yrotation Xrotation
					JOINT Neck1
					{
						OFFSET -0.054170 1.746240 0.172020
						CHANNELS 3 Zrotation Yrotation Xrotation
						JOINT Head
						{
							OFFSET 0.104070 1.761360 -0.123970
							CHANNELS 3 Zrotation Yrotation Xrotation
							End Site
							{
								OFFSET 0.000000 0.000000 0.000000
							}
						}
					}
				}
				JOINT LeftShoulder
				{
					OFFSET 0.000000 0.000000 0.000000
					CHANNELS 3 Zrotation Yrotation Xrotation
					JOINT LeftArm
					{
						OFFSET 3.362410 1.200890 -0.311210
						CHANNELS 3 Zrotation Yrotation Xrotation
						JOINT LeftForeArm
						{
							OFFSET 4.983000 -0.000000 -0.000000
							CHANNELS 3 Zrotation Yrotation Xrotation
							JOINT LeftHand
							{
								OFFSET 3.483560 -0.000000 -0.000000
								CHANNELS 3 Zrotation Yrotation Xrotation
								JOINT LeftFingerBase
								{
									OFFSET 0.000000 0.000000 0.000000
									CHANNELS 3 Zrotation Yrotation Xrotation
									JOINT LeftHandIndex1
									{
										OFFSET 0.715260 -0.000000 -0.000000
										CHANNELS 3 Zrotation Yrotation Xrotation
										End Site
										{
											OFFSET 0.000000 0.000000 0.000000
										}
									}
								}
								JOINT LThumb
								{
									OFFSET 0.000000 0.000000 0.000000
									CHANNELS 3 Zrotation Yrotation Xrotation
									End Site
									{
										OFFSET 0.000000 0.000000 0.000000
									}
								}
							}
						}
					}
				}
				JOINT RightShoulder
				{
					OFFSET 0.000000 0.000000 0.000000
					CHANNELS 3 Zrotation Yrotation Xrotation
					JOINT RightArm
					{
						OFFSET -3.136600 1.374050 -0.404650
						CHANNELS 3 Zrotation Yrotation Xrotation
						JOINT RightForeArm
						{
							OFFSET -5.241900 -0.000000 -0.000000
							CHANNELS 3 Zrotation Yrotation Xrotation
							JOINT RightHand
							{
								OFFSET -3.444170 -0.000000 -0.000000
								CHANNELS 3 Zrotation Yrotation Xrotation
								JOINT RightFingerBase
								{
									OFFSET 0.000000 0.000000 0.000000
									CHANNELS 3 Zrotation Yrotation Xrotation
									JOINT RightHandIndex1
									{
										OFFSET -0.622530 -0.000000 -0.000000
										CHANNELS 3 Zrotation Yrotation Xrotation
										End Site
										{
											OFFSET 0.000000 0.000000 0.000000
										}
									}
								}
								JOINT RThumb
								{
									OFFSET 0.000000 0.000000 0.000000
									CHANNELS 3 Zrotation Yrotation Xrotation
									End Site
									{
										OFFSET 0.000000 0.000000 0.000000
									}
								}
							}
						}
					}
				}
			}
		}
	}
}
MOTION
Frames: 6
Frame Time: 0.008333
2.519644 17.330012 -1.110371 7.803851 83.808825 22.427935 -10.141378 1.657068 1.035941 -11.921212 1.571602 -12.195844 -2.607601 -0.858167 8.816632 0.642696 2.334631 -8.541558 -0.127100 0.000000 -30.363600 8.949276 0.107307 2.453197 5.657681 1.834319 -39.179617 2.148343 -0.787651 20.206906 -1.186080 -4.622970 -2.822760 -1.039900 -0.000001 -38.441100 -0.612160 -2.879619 -3.117843 -0.993678 -3.009801 -3.494905 -8.040182 -3.120074 0.155210 11.120101 -3.643602 -3.976988 -4.429232 -0.360188 0.933311 0.000000 0.000000 0.000000 -2.537163 -2.050144 2.459909 -54.423751 -30.270490 14.657229 -3.084340 -36.773802 -0.017777 5.671223 -0.864279 -0.054479 -0.159217 0.232879 0.000000 0.000000 0.000000 0.000000 0.000000 0.000000 0.000000 20.372632 -3.383197 1.705662 63.761699 -1.207429 -11.434581 3.868062 9.522377 0.009467 -0.311578 5.296890 -0.019060 0.100669 -0.056044 -0.000000 0.000000 0.000000 0.000000 0.000000 0.000000 0.000000 
2.687395 17.307621 -1.091526 9.649215 83.964135 24.335721 -10.122283 1.695207 0.937896 -12.052098 1.765644 -11.257728 -2.652436 -0.910069 8.278108 0.615429 2.059727 -8.820896 -0.146800 0.000000 -30.788200 8.909477 0.166990 2.678570 5.479667 1.863472 -39.539653 2.343544 -0.461424 17.208409 -1.038156 -3.998822 -2.410616 -1.022000 0.000000 -38.506500 -0.676448 -3.056230 -3.198703 -0.990601 -3.180311 -3.477544 -7.996238 -3.281634 0.242227 11.115909 -4.204332 -4.112677 -4.384557 -0.356341 0.901585 0.000000 0.000000 0.000000 -2.214434 -2.224880 2.430446 -53.549144 -31.286327 14.215054 -3.010715 -37.498845 -0.019058 5.772148 -0.919025 -0.058847 -0.160170 0.243846 -0.000000 0.000000 0.000000 0.000000 0.000000 0.000000 0.000000 20.244180 -4.035351 1.695622 63.161765 -1.917354 -11.559298 3.906172 9.734408 0.010036 -0.310985 5.458770 -0.019662 0.103603 -0.054267 -0.000000 0.000000 0.000000 0.000000 0.000000 0.000000 0.000000 
2.855236 17.282201 -1.070974 11.799388 84.116544 26.525827 -10.091520 1.732483 0.832070 -12.201040 1.959512 -10.291035 -2.697091 -0.960350 7.755415 0.589630 1.796553 -9.080508 -0.162600 0.000000 -31.258300 8.889081 0.237289 2.892401 5.264215 1.844908 -39.872982 2.534367 -0.132676 14.287714 -0.850558 -3.189491 -2.017300 -0.957500 -0.000001 -38.671300 -0.763998 -3.234667 -3.258270 -0.991356 -3.349965 -3.456864 -7.943540 -3.442639 0.325449 11.099336 -4.754505 -4.245573 -4.335889 -0.352203 0.870330 0.000000 0.000000 0.000000 -1.896820 -2.394560 2.399973 -52.648623 -32.255834 13.735293 -2.931070 -38.178728 -0.020442 5.879469 -0.963451 -0.062821 -0.160624 0.254731 -0.000000 0.000000 0.000000 0.000000 0.000000 0.000000 0.000000 20.088566 -4.674639 1.684434 62.597037 -2.608531 -11.789487 3.942234 9.943022 0.010613 -0.276749 5.608293 -0.018664 0.106381 -0.052742 -0.000000 0.000000 0.000000 0.000000 0.000000 0.000000 0.000000 
3.022844 17.253996 -1.048984 14.211399 84.259666 28.938984 -10.047205 1.770418 0.714618 -12.364012 2.165550 -9.271310 -2.741141 -1.007859 7.236460 0.564127 1.542484 -9.304427 -0.173800 0.000000 -31.757200 8.888935 0.322301 3.082118 5.026568 1.764074 -40.164515 2.718163 0.190984 11.476491 -0.624364 -2.187249 -1.642030 -0.842900 0.000000 -39.004400 -0.870319 -3.413327 -3.279472 -0.995305 -3.517162 -3.429598 -7.882764 -3.601423 0.404090 11.070873 -5.294071 -4.375286 -4.283719 -0.347785 0.839474 0.000000 0.000000 0.000000 -1.586615 -2.559849 2.368250 -51.724145 -33.178547 13.219137 -2.845643 -38.815509 -0.021908 5.989214 -1.000667 -0.066499 -0.160554 0.265526 0.000000 0.000000 0.000000 0.000000 0.000000 0.000000 0.000000 19.908953 -5.300978 1.673653 62.064984 -3.273145 -12.103168 3.975905 10.144291 0.011161 -0.213143 5.729886 -0.015966 0.109027 -0.051446 -0.000000 0.000000 0.000000 0.000000 0.000000 0.000000 0.000000 
3.190305 17.223276 -1.025819 16.787608 84.390103 31.475284 -9.990150 1.811269 0.586529 -12.530927 2.395614 -8.203303 -2.784471 -1.050979 6.728112 0.537384 1.286729 -9.490104 -0.180200 -0.000000 -32.269600 8.906774 0.423363 3.242927 4.789107 1.618469 -40.415054 2.892938 0.503909 8.798984 -0.366234 -1.008115 -1.280939 -0.681100 0.000000 -39.553700 -0.984895 -3.589809 -3.259984 -1.000435 -3.680461 -3.395570 -7.814619 -3.756667 0.477416 11.029878 -5.819263 -4.500322 -4.228542 -0.343127 0.809446 0.000000 0.000000 0.000000 -1.289440 -2.720477 2.335167 -50.778303 -34.048812 12.671123 -2.754837 -39.415462 -0.023437 6.097899 -1.030613 -0.069883 -0.159945 0.276189 -0.000000 0.000000 0.000000 0.000000 0.000000 0.000000 0.000000 19.706076 -5.910365 1.664004 61.563362 -3.913410 -12.494248 4.007391 10.336188 0.011653 -0.122042 5.812158 -0.011668 0.111560 -0.050364 -0.000000 0.000000 0.000000 0.000000 0.000000 0.000000 0.000000 
3.357172 17.190262 -1.001845 19.408755 84.496224 33.997981 -9.920648 1.855610 0.443138 -12.694094 2.657388 -7.052594 -2.825462 -1.089065 6.206594 0.509893 1.037296 -9.628083 -0.181900 0.000000 -32.787101 8.940116 0.543664 3.361263 4.574572 1.402542 -40.603707 3.056345 0.799338 6.280350 -0.084391 0.328674 -0.933375 -0.476000 0.000000 -40.363800 -1.103374 -3.759908 -3.179578 -1.006286 -3.835701 -3.350084 -7.740067 -3.903919 0.547746 10.978705 -6.345781 -4.625830 -4.170693 -0.338177 0.778629 0.000000 0.000000 0.000000 -1.006127 -2.870349 2.298625 -49.817655 -34.879493 12.091601 -2.659210 -39.972905 -0.024986 6.199973 -1.060282 -0.073274 -0.158744 0.286727 -0.000000 0.000000 0.000000 0.000000 0.000000 0.000000 0.000000 19.486342 -6.517680 1.656905 61.081638 -4.499206 -12.893189 4.035883 10.510627 0.012063 -0.023670 5.849970 -0.006870 0.114057 -0.049445 -0.000000 0.000000 0.000000 0.000000 0.000000 0.000000 0.000000 
